<svg id="c70fc1ee-50be-4696-90a3-47c029582d3c" data-name="Layer 2" xmlns="http://www.w3.org/2000/svg" width="195.95mm" height="70.56mm" viewBox="0 0 555.46 200"><title>axis_logo_color</title><path d="M232.31,34h27.37a0.36,0.36,0,0,1,.35.37V152.94a0.36,0.36,0,0,1-.35.37H232.31a0.36,0.36,0,0,1-.35-0.37V34.36A0.36,0.36,0,0,1,232.31,34Z" style="fill:#231f20"/><path d="M223.22,34c0.17,0,.23.28,0.14,0.43L187.14,93a1.53,1.53,0,0,0,0,1.7l36.51,58.11c0.21,0.33.07,0.53-.13,0.53H189.6a0.79,0.79,0,0,1-.72-0.43L167,117.15c-0.24-.39-0.46-0.35-0.67,0l-20.62,35.65a0.89,0.89,0,0,1-.84.47H113.12c-0.38,0-.44-0.12-0.25-0.43l37.31-61.31a1.82,1.82,0,0,0,0-2L117.4,34.48a0.34,0.34,0,0,1,.22-0.49h32.75a0.77,0.77,0,0,1,.68.46l19.8,33.4c0.22,0.37.47,0.37,0.7,0l20.4-33.41a0.79,0.79,0,0,1,.72-0.43h30.56Z" style="fill:#231f20"/><polygon points="457.12 0 555.46 153.24 470.08 153.24 437.89 103.08 433.77 103.08 431.59 99.79 393.11 99.78 457.12 0" style="fill:#ffe600"/><polygon points="450.98 94.78 488.49 153.24 368.63 153.24 406.15 94.78 450.98 94.78"/><polygon points="441.17 94.78 478.68 153.24 358.82 153.24 396.34 94.78 441.17 94.78" style="fill:#ed1c24"/><path d="M102.66,34H77.19a0.87,0.87,0,0,0-.77.48L0,152.92C0,153,0,153.31.15,153.31H31.27a0.68,0.68,0,0,0,.65-0.3l10.37-16.16a0.7,0.7,0,0,1,.66-0.33H75.5a0.39,0.39,0,0,1,.41.38v15.92c0,0.22,0,.49.25,0.49h26.6a0.38,0.38,0,0,0,.31-0.43V34.47A0.45,0.45,0,0,0,102.66,34ZM75.93,113.14a0.21,0.21,0,0,1-.17.24H55.46c-0.1,0-.19-0.1-0.08-0.27L76.64,78.89c0.11-.16.21-0.11,0.21,0Z" style="fill:#231f20"/><path d="M276.14,153.31H312a48.86,48.86,0,0,0,13.49-2.25c16.53-5.33,25.41-21.65,25.41-35.73,0-22.44-17.45-30.18-38.37-39.25-3.64-1.58-8.06-3.73-8.06-8.53,0-5.07,4.8-7.57,10.1-7.57h28.29a0.37,0.37,0,0,0,.36-0.37l0-25.81a0.32,0.32,0,0,0-.36-0.27H313.17c-24.79,0-39.38,14.72-39.38,35.3,0,17.92,11.49,26.74,28.06,33.27,11.63,4.59,19.18,6.72,19.18,16.1,0,5-3,9.6-9.08,9.6H276.18a0.29,0.29,0,0,0-.31.26v24.88A0.53,0.53,0,0,0,276.14,153.31Z" style="fill:#231f20"/><path d="M366.3,33.26a9.92,9.92,0,1,0,9.93,9.93A9.92,9.92,0,0,0,366.3,33.26Zm0,18.94a9,9,0,1,1,9-9A9,9,0,0,1,366.3,52.2Z"/><path d="M370.95,49l-2.29-5.39a3,3,0,0,0,2.17-3A3.22,3.22,0,0,0,369.59,38a4.16,4.16,0,0,0-2.64-.71H362.6V49h1.46v-5h3.22l2.15,5h1.52Zm-6.89-6.22V38.58H367a2.52,2.52,0,0,1,1.61.37,1.83,1.83,0,0,1,.81,1.61,2.14,2.14,0,0,1-.59,1.53,2.46,2.46,0,0,1-2,.64h-2.73Z" style="fill:#231f20"/><path d="M24,197.69A19,19,0,0,1,14.6,200C5.31,200,.69,194.15.69,188.16c0-6.19,5.22-12,14.36-12a17.25,17.25,0,0,1,8.65,2v5.17A17,17,0,0,0,15.47,181c-5.08,0-8.65,2.93-8.65,7s3.54,7.11,8.51,7.11c3.12,0,5.22-1,8.65-2.55v5.07Z"/><path d="M65.88,188.1c0,4.25-3,7.07-7.53,7.07s-7.57-2.82-7.57-7.07,3-7.07,7.57-7.07S65.88,183.84,65.88,188.1Zm6.13,0c0-5.58-4.66-11.9-13.66-11.9s-13.7,6.29-13.7,11.9c0,5.92,4.94,11.9,13.7,11.9C66.93,200,72,194,72,188.1Z"/><path d="M113.1,176.5h5.18v23.2h-6V185.21l-6.45,7.28H105l-6.45-7.28v14.49h-6V176.5h5.18l7.67,8.6Z"/><path d="M162.11,176.5h5.19v23.2h-6V185.21l-6.45,7.28H154l-6.45-7.28v14.49h-6V176.5h5.18l7.67,8.6Z"/><path d="M212.87,176.5v13.16c0,7.69-5.4,10.34-11.95,10.34C194,200,189,196.87,189,189.69V176.5h6v13.33c0,3.33,2.49,5.34,5.92,5.34,3.15,0,6.06-1.6,6.06-5.75V176.5h6Z"/><path d="M258.91,199.69h-5l-13.21-14.86v14.86h-6V176.5h5.46L253,190.68V176.5h6v23.2Z"/><path d="M287.39,199.69h-6V176.5h6v23.2Z"/><path d="M330.37,197.69A19,19,0,0,1,321,200c-9.28,0-13.91-5.85-13.91-11.84,0-6.19,5.22-12,14.36-12a17.25,17.25,0,0,1,8.65,2v5.17a17,17,0,0,0-8.23-2.38c-5.08,0-8.65,2.93-8.65,7s3.54,7.11,8.51,7.11c3.12,0,5.22-1,8.65-2.55v5.07Z"/><path d="M363,191.05h-7.36l3.5-9Zm-0.49-14.56h-6.9L346,199.69h6.31l1.79-4.59h10.68l2,4.59h6.41Z"/><path d="M408,180.75h-8.65v18.94h-6V180.75H384.7V176.5H408v4.25Z"/><path d="M432.07,199.69h-6V176.5h6v23.2Z"/><path d="M471.37,188.1c0,4.25-3,7.07-7.53,7.07s-7.57-2.82-7.57-7.07,3-7.07,7.57-7.07S471.37,183.84,471.37,188.1Zm6.13,0c0-5.58-4.66-11.9-13.66-11.9s-13.7,6.29-13.7,11.9c0,5.92,4.94,11.9,13.7,11.9C472.42,200,477.5,194,477.5,188.1Z"/><path d="M519.29,199.69h-5l-13.21-14.86v14.86h-6V176.5h5.46l12.75,14.18V176.5h6v23.2Z"/><path d="M554,182.52c-3.47-1.5-5.54-2.07-7.57-2.07s-3.5.75-3.5,1.9c0,3.5,12.16,2.52,12.16,10.61,0,4.46-3.85,7-9.18,7a16.57,16.57,0,0,1-8.62-2.24v-5c3.43,2.21,5.53,3,8.16,3,2.28,0,3.5-.78,3.5-2.14,0-3.81-12.16-2.41-12.16-10.75,0-4,3.57-6.67,9.11-6.67A20,20,0,0,1,554,178v4.52Z"/></svg>